<?xml version="1.0" encoding="iso-8859-1"?>
<!-- Generator: Adobe Illustrator 19.0.0, SVG Export Plug-In . SVG Version: 6.00 Build 0)  -->
<svg xmlns="http://www.w3.org/2000/svg" xmlns:xlink="http://www.w3.org/1999/xlink" version="1.1" id="Layer_1" x="0px" y="0px" viewBox="0 0 512 512" style="enable-background:new 0 0 512 512;" xml:space="preserve" width="512" height="512">
<g>
	<path style="fill:#B57F5F;" d="M256,430.73c-2.079,0-4.159-0.794-5.746-2.381l-47.365-47.365   c-7.675-7.675-11.905-17.881-11.905-28.738v-35.294c0-4.492,3.635-8.127,8.127-8.127s8.127,3.635,8.127,8.127v35.294   c0,6.516,2.54,12.643,7.143,17.246l47.365,47.365c3.175,3.175,3.175,8.317,0,11.492C260.159,429.936,258.079,430.73,256,430.73z"/>
	<path style="fill:#C38C66;" d="M256,446.984c-2.079,0-4.159-0.794-5.746-2.381c-3.175-3.175-3.175-8.317,0-11.492l39.238-39.238   c4.603-4.603,7.143-10.73,7.143-17.246v-51.548c0-4.492,3.635-8.127,8.127-8.127s8.127,3.635,8.127,8.127v51.548   c0,10.857-4.23,21.064-11.905,28.738l-39.238,39.238C260.159,446.19,258.079,446.984,256,446.984z"/>
	<path style="fill:#C38C66;" d="M304.762,495.746h-8.127c-13.465,0-24.381-10.916-24.381-24.381V325.079h-32.508v146.286   c0,13.465-10.916,24.381-24.381,24.381h-8.127c-4.489,0-8.127,3.638-8.127,8.127c0,4.488,3.638,8.127,8.127,8.127h97.524   c4.489,0,8.127-3.639,8.127-8.127C312.889,499.384,309.25,495.746,304.762,495.746z"/>
	<path style="fill:#B57F5F;" d="M239.746,325.079v146.286c0,13.465-10.916,24.381-24.381,24.381h-8.127   c-4.489,0-8.127,3.638-8.127,8.127c0,4.488,3.638,8.127,8.127,8.127H256V366.875c0-5.029,3.895-9.266,8.918-9.526   c2.457-0.127,4.902-0.3,7.336-0.51v-31.76H239.746z"/>
	<circle style="fill:#C8EB82;" cx="256" cy="170.667" r="170.667"/>
	<path style="fill:#AEDB81;" d="M284.444,312.889c-94.256,0-170.667-76.41-170.667-170.667c0-39.876,13.683-76.571,36.6-105.624   c-39.623,31.253-65.045,79.686-65.045,134.068c0,94.256,76.41,170.667,170.667,170.667c54.381,0,102.806-25.429,134.059-65.052   C361.006,299.198,324.319,312.889,284.444,312.889z"/>
	<path style="fill:#FFFFFF;" d="M176.095,194.31c-13.921,3.968-16.23,2.429-18.151-0.405c-1.373-2,0.579-7.77,6.627-11.905   c6.04-4.127,12.135-3.857,13.508-1.841c2.532,3.706,7.587,4.659,11.294,2.119c3.706-2.532,4.651-7.587,2.119-11.294   c-5.793-8.49-17.516-10.613-28.82-6.161l-0.568-0.831c-2.524-3.698-7.571-4.651-11.294-2.119   c-3.706,2.532-4.651,7.587-2.119,11.294l0.563,0.824c-8.251,8.908-10.537,20.593-4.738,29.089   c9.802,14.325,26.214,9.659,36.032,6.865c13.96-3.968,16.23-2.405,18.151,0.413c0.587,0.857,0.54,2.429-0.127,4.206   c-1.053,2.787-3.411,5.581-6.478,7.682c-0.007,0.004-0.015,0.004-0.022,0.009c-0.007,0.005-0.011,0.013-0.018,0.019   c-3.06,2.096-6.638,3.449-9.513,3.235c-1.897-0.024-3.381-0.548-3.96-1.405c-2.54-3.706-7.579-4.643-11.302-2.127   c-3.706,2.532-4.659,7.595-2.127,11.302c3.635,5.31,9.905,8.405,17.206,8.484c0.103,0,0.206,0,0.302,0   c3.741,0,7.584-0.856,11.311-2.315l0.563,0.823c1.579,2.302,4.127,3.54,6.722,3.54c1.579,0,3.175-0.46,4.579-1.413   c3.706-2.54,4.659-7.595,2.127-11.302l-0.565-0.827c2.791-3.021,5.03-6.386,6.383-9.974c2.579-6.833,1.976-13.794-1.651-19.111   C202.317,186.833,185.905,191.516,176.095,194.31z"/>
	<path style="fill:#FFFFFF;" d="M277.837,148.695l-0.44,0.9c-1.968,4.032-0.302,8.897,3.73,10.873   c1.151,0.564,2.365,0.825,3.564,0.825c3.008,0,5.897-1.675,7.31-4.556l0.393-0.805c2.528,0.597,5.031,0.892,7.448,0.892   c8.913,0,16.667-3.968,20.23-11.246c7.627-15.603-4.556-27.571-11.825-34.714c-10.325-10.151-10.111-12.913-8.611-15.992   c0.46-0.929,1.849-1.667,3.722-1.96c2.929-0.444,6.563,0.206,9.905,1.841s6.087,4.071,7.532,6.683   c0.921,1.667,1.198,3.214,0.738,4.151c-1.968,4.032-0.302,8.897,3.73,10.873c4.056,1.992,8.897,0.302,10.873-3.73   c2.825-5.778,2.421-12.762-1.111-19.151c-1.859-3.358-4.564-6.371-7.765-8.963l0.44-0.902c1.968-4.032,0.294-8.897-3.738-10.865   c-4.032-1.976-8.905-0.286-10.865,3.738l-0.436,0.892c-4.006-0.935-8.037-1.223-11.834-0.623   c-7.214,1.135-12.976,5.103-15.794,10.881c-7.635,15.595,4.54,27.563,11.817,34.714c10.325,10.151,10.119,12.921,8.619,15.984   c-1.071,2.183-7.04,3.333-13.627,0.127c-6.587-3.222-9.341-8.659-8.278-10.841c1.968-4.032,0.294-8.897-3.738-10.865   c-4.008-1.968-8.897-0.302-10.865,3.738C264.446,129.839,268.391,141.069,277.837,148.695z"/>
	<path style="fill:#FFF5D7;" d="M308.302,235.579c-9.667,4.246-10.714,3.056-11.595,2.095c-0.341-0.745,0.255-4.056,3.602-7.093   c0.005-0.004,0.012-0.006,0.017-0.01c0.004-0.003,0.005-0.009,0.009-0.012c3.359-3.018,6.69-3.273,7.364-2.916   c3.008,3.333,8.143,3.595,11.476,0.587c3.333-3.008,3.595-8.143,0.587-11.476c-3.714-4.127-9.413-6.056-15.579-5.286   c-2.742,0.338-5.483,1.22-8.101,2.521c-3.061-2.758-7.71-2.921-10.835-0.101c-3.14,2.848-3.443,7.54-0.946,10.866   c-2.259,3.594-3.699,7.491-3.895,11.388c-0.238,4.722,1.254,9.119,4.19,12.357c9.841,10.921,23.103,5.103,30.222,1.968   c9.667-4.214,10.722-3.056,11.603-2.095c0.349,0.745-0.247,4.057-3.602,7.093c-0.005,0.004-0.012,0.005-0.017,0.01   c-0.004,0.003-0.005,0.009-0.009,0.012c-3.327,2.994-6.651,3.273-7.396,2.876c-3.016-3.302-8.127-3.532-11.444-0.548   c-3.333,3.008-3.595,8.143-0.587,11.476c3.183,3.532,7.802,5.452,12.944,5.452c0.865,0,1.746-0.056,2.635-0.167   c2.745-0.339,5.489-1.223,8.111-2.527c1.534,1.38,3.421,2.202,5.373,2.202c1.944,0,3.897-0.69,5.452-2.095   c3.116-2.826,3.428-7.464,0.994-10.786c1.559-2.471,2.714-5.104,3.332-7.794c1.389-6.063,0.056-11.913-3.675-16.032   C328.706,226.651,315.436,232.468,308.302,235.579z"/>
	<path style="fill:#FFF5D7;" d="M201.048,105.754c9.675-4.246,10.722-3.056,11.595-2.095c0.341,0.745-0.254,4.057-3.602,7.093   c-0.005,0.004-0.012,0.005-0.017,0.01c-0.004,0.003-0.005,0.009-0.009,0.012c-3.327,2.986-6.643,3.273-7.396,2.876   c-3.016-3.302-8.127-3.532-11.444-0.548c-3.333,3.008-3.595,8.143-0.587,11.476c3.183,3.532,7.802,5.452,12.944,5.452   c0.865,0,1.746-0.056,2.635-0.167c2.745-0.339,5.489-1.223,8.111-2.527c1.534,1.38,3.421,2.202,5.373,2.202   c1.944,0,3.897-0.69,5.452-2.095c3.14-2.848,3.443-7.54,0.946-10.866c2.259-3.594,3.699-7.491,3.895-11.388   c0.238-4.722-1.254-9.119-4.19-12.357c-9.849-10.921-23.103-5.095-30.222-1.968c-9.667,4.222-10.722,3.056-11.603,2.095   c-0.349-0.745,0.248-4.056,3.602-7.093c0.005-0.004,0.012-0.005,0.017-0.01c0.004-0.003,0.005-0.009,0.009-0.012   c3.359-3.018,6.69-3.281,7.364-2.916c3.016,3.341,8.143,3.595,11.476,0.587c3.333-3.008,3.595-8.143,0.587-11.476   c-3.714-4.127-9.397-6.056-15.579-5.286c-2.742,0.338-5.483,1.22-8.102,2.521c-3.057-2.752-7.717-2.921-10.835-0.101   c-3.116,2.826-3.428,7.464-0.994,10.786c-1.559,2.471-2.714,5.104-3.332,7.794c-1.389,6.063-0.056,11.913,3.675,16.032   C180.643,114.683,193.921,108.873,201.048,105.754z"/>
	<path style="fill:#FFEAA8;" d="M225.873,270.571l-8.127,8.127c-3.175,3.175-3.175,8.317,0,11.492   c1.587,1.587,3.667,2.381,5.746,2.381s4.159-0.794,5.746-2.381l8.127-8.127c3.175-3.175,3.175-8.317,0-11.492   C234.19,267.397,229.048,267.397,225.873,270.571z"/>
	<path style="fill:#FFEAA8;" d="M391.778,181.175l-8.127-8.127c-3.175-3.175-8.317-3.175-11.492,0   c-3.175,3.175-3.175,8.317,0,11.492l8.127,8.127c1.587,1.587,3.667,2.381,5.746,2.381c2.079,0,4.159-0.794,5.746-2.381   C394.952,189.492,394.952,184.349,391.778,181.175z"/>
	<path style="fill:#FFEAA8;" d="M264.127,186.921c0-4.492-3.635-8.127-8.127-8.127s-8.127,3.635-8.127,8.127v8.127   c0,4.492,3.635,8.127,8.127,8.127s8.127-3.635,8.127-8.127V186.921z"/>
	<path style="fill:#FFEAA8;" d="M253.619,62.635c3.175-3.175,3.175-8.317,0-11.492l-8.127-8.127c-3.175-3.175-8.317-3.175-11.492,0   s-3.175,8.317,0,11.492l8.127,8.127c1.587,1.587,3.667,2.381,5.746,2.381S252.032,64.222,253.619,62.635z"/>
	<path style="fill:#FFEAA8;" d="M147.968,116.159c-3.175-3.175-8.317-3.175-11.492,0l-8.127,8.127   c-3.175,3.175-3.175,8.317,0,11.492c1.587,1.587,3.667,2.381,5.746,2.381c2.079,0,4.159-0.794,5.746-2.381l8.127-8.127   C151.143,124.476,151.143,119.333,147.968,116.159z"/>
	<path style="fill:#FFE07D;" d="M167.683,258.73h-0.079c-4.492,0-8.087,3.635-8.087,8.127s3.675,8.127,8.167,8.127   s8.127-3.635,8.127-8.127S172.175,258.73,167.683,258.73z"/>
	<path style="fill:#FFE07D;" d="M223.492,170.667c4.492,0,8.127-3.635,8.127-8.127s-3.635-8.127-8.127-8.127h-0.079   c-4.492,0-8.087,3.635-8.087,8.127S219,170.667,223.492,170.667z"/>
	<path style="fill:#FFE07D;" d="M329.222,170.667h-0.079c-4.492,0-8.087,3.635-8.087,8.127s3.675,8.127,8.167,8.127   s8.127-3.635,8.127-8.127S333.714,170.667,329.222,170.667z"/>
	<path style="fill:#FFE07D;" d="M369.857,121.905c4.492,0,8.127-3.635,8.127-8.127s-3.635-8.127-8.127-8.127h-0.079   c-4.492,0-8.087,3.635-8.087,8.127S365.365,121.905,369.857,121.905z"/>
	<path style="fill:#FFE07D;" d="M369.857,227.556h-0.079c-4.492,0-8.087,3.635-8.087,8.127s3.675,8.127,8.167,8.127   s8.127-3.635,8.127-8.127S374.349,227.556,369.857,227.556z"/>
	<path style="fill:#FFE07D;" d="M288.508,48.762c4.492,0,8.127-3.635,8.127-8.127s-3.635-8.127-8.127-8.127h-0.079   c-4.492,0-8.087,3.635-8.087,8.127S284.016,48.762,288.508,48.762z"/>
	<path style="fill:#FFE07D;" d="M272.254,292.571h-0.079c-4.492,0-8.087,3.635-8.087,8.127s3.675,8.127,8.167,8.127   s8.127-3.635,8.127-8.127S276.746,292.571,272.254,292.571z"/>
</g>















</svg>
